<svg width="45" height="47" viewBox="0 0 45 47" fill="none" xmlns="http://www.w3.org/2000/svg">
<circle cx="22.5" cy="24.5" r="22.5" fill="white"/>
<path d="M34.23 14.1C34.85 14.22 35.31 14.43 35.61 14.73C35.93 15.03 36.09 15.38 36.09 15.78C36.09 16.44 35.9 16.92 35.52 17.22C35.16 17.52 34.58 17.64 33.78 17.58C31.98 17.44 30.57 17.35 29.55 17.31C28.55 17.25 27.23 17.21 25.59 17.19C24.85 20.87 24.17 24.57 23.55 28.29C23.33 29.65 23.1 31.23 22.86 33.03C22.62 34.81 22.46 36.25 22.38 37.35C22.34 37.93 22.1 38.38 21.66 38.7C21.22 39 20.69 39.15 20.07 39.15C19.41 39.15 18.9 38.99 18.54 38.67C18.18 38.35 18 37.93 18 37.41C18 36.93 18.07 36.14 18.21 35.04C18.37 33.92 18.55 32.75 18.75 31.53C18.97 30.31 19.14 29.25 19.26 28.35C19.48 26.83 19.73 25.32 20.01 23.82C20.29 22.32 20.57 20.9 20.85 19.56C20.91 19.26 20.98 18.92 21.06 18.54C21.14 18.14 21.23 17.7 21.33 17.22C19.37 17.28 17.83 17.44 16.71 17.7C15.59 17.96 14.79 18.33 14.31 18.81C13.85 19.27 13.62 19.87 13.62 20.61C13.62 21.29 13.82 21.94 14.22 22.56C14.3 22.7 14.34 22.85 14.34 23.01C14.34 23.39 14.11 23.75 13.65 24.09C13.21 24.41 12.75 24.57 12.27 24.57C11.93 24.57 11.65 24.47 11.43 24.27C11.03 23.93 10.7 23.45 10.44 22.83C10.18 22.19 10.05 21.47 10.05 20.67C10.05 18.97 10.6 17.61 11.7 16.59C12.82 15.55 14.51 14.79 16.77 14.31C19.05 13.83 21.97 13.59 25.53 13.59C27.73 13.59 29.48 13.63 30.78 13.71C32.1 13.79 33.25 13.92 34.23 14.1Z" fill="#1E90FF"/>
</svg>
